<?xml version="1.0" encoding="UTF-8"?>
<svg id="Layer_2" data-name="Layer 2" xmlns="http://www.w3.org/2000/svg" viewBox="0 0 1144.7 291">
  <defs>
    <style>
      .cls-1 {
        fill: #000;
        stroke-width: 0px;
      }

      .cls-2 {
        opacity: .5;
      }
    </style>
  </defs>
  <g id="Layer_1-2" data-name="Layer 1">
    <g>
      <polygon class="cls-1" points="214 9.5 214 172.5 25 172.5 25 9.5 0 9.5 0 281.5 25 281.5 25 197.5 214 197.5 214 281.5 239 281.5 239 9.5 214 9.5"/>
      <polygon class="cls-1" points="823 9.5 823 240.5 634 9.5 609 9.5 609 281.5 634 281.5 634 50.46 823 281.5 848 281.5 848 9.5 823 9.5"/>
      <polygon class="cls-1" points="920 281.5 895 281.5 895 9.5 920 9.5 920 146.52 1127 1.5 1140.7 21.3 1004 118.5 1144.7 270.2 1126.5 287 983 132.5 920 175.7 920 281.5"/>
      <path class="cls-1" d="M428.5,291c-80.23,0-145.5-65.27-145.5-145.5S348.27,0,428.5,0s145.5,65.27,145.5,145.5-65.27,145.5-145.5,145.5ZM428.5,25c-66.44,0-120.5,54.06-120.5,120.5s54.06,120.5,120.5,120.5,120.5-54.06,120.5-120.5-54.06-120.5-120.5-120.5Z"/>
      <g class="cls-2">
        <path class="cls-1" d="M428.5,248v-16c47.7,0,86.5-38.8,86.5-86.5s-38.8-86.5-86.5-86.5v-16c56.52,0,102.5,45.98,102.5,102.5s-45.98,102.5-102.5,102.5Z"/>
      </g>
      <g class="cls-2">
        <path class="cls-1" d="M428.5,215v-16c29.22,0,53-24,53-53.5s-23.78-53.5-53-53.5v-16c38.05,0,69,31.18,69,69.5s-30.95,69.5-69,69.5Z"/>
      </g>
      <g class="cls-2">
        <path class="cls-1" d="M428.5,181v-16c10.75,0,19.5-8.75,19.5-19.5s-8.75-19.5-19.5-19.5v-16c19.57,0,35.5,15.92,35.5,35.5s-15.93,35.5-35.5,35.5Z"/>
      </g>
    </g>
  </g>
</svg>